<svg xmlns="http://www.w3.org/2000/svg" viewBox="0 0 800 600" width="100%" height="100%">
  <path d="M 120 0 
           L 800 0 
           A 120 120 0 0 1 800 240 
           L 800 480 
           A 120 120 0 0 1 680 600 
           L 0 600 
           A 120 120 0 0 1 0 480 
           L 0 120 
           A 120 120 0 0 1 120 0 Z" 
        fill="#2B5F9E" />

  <g fill="none" stroke="#FFFFFF" stroke-width="42" stroke-linecap="round" stroke-linejoin="round">
    <path d="M 358,150 
             L 358,370 
             A 65,65 0 0 1 293,435 
             L 185,435 
             A 65,65 0 0 1 120,370 
             L 120,285 
             A 65,65 0 0 1 185,220 
             L 358,220" />
    
    <path d="M 442,435 
             L 442,215 
             A 65,65 0 0 1 507,150 
             L 615,150 
             A 65,65 0 0 1 680,215 
             L 680,300 
             A 65,65 0 0 1 615,365 
             L 442,365" />
  </g>
</svg>
